<?xml version="1.0" encoding="UTF-8" standalone="no"?>
<!DOCTYPE svg PUBLIC "-//W3C//DTD SVG 1.1//EN"
 "http://www.w3.org/Graphics/SVG/1.1/DTD/svg11.dtd">
<!-- Generated by graphviz version 2.38.0 (20140413.2041)
 -->
<!-- Title: %3 Pages: 1 -->
<svg width="264pt" height="548pt"
 viewBox="0.00 0.00 264.09 548.00" xmlns="http://www.w3.org/2000/svg" xmlns:xlink="http://www.w3.org/1999/xlink">
<g id="graph0" class="graph" transform="scale(1 1) rotate(0) translate(4 544)">
<title>%3</title>
<polygon fill="white" stroke="none" points="-4,4 -4,-544 260.091,-544 260.091,4 -4,4"/>
<!-- pe1_child -->
<g id="node1" class="node"><title>pe1_child</title>
<ellipse fill="none" stroke="black" cx="89.0456" cy="-450" rx="55.7903" ry="18"/>
<text text-anchor="middle" x="89.0456" y="-446.3" font-family="Times,serif" font-size="14.00">pe1_child</text>
</g>
<!-- p1_child -->
<g id="node2" class="node"><title>p1_child</title>
<ellipse fill="none" stroke="black" cx="50.0456" cy="-306" rx="50.0912" ry="18"/>
<text text-anchor="middle" x="50.0456" y="-302.3" font-family="Times,serif" font-size="14.00">p1_child</text>
</g>
<!-- pe1_child&#45;&#45;p1_child -->
<g id="edge3" class="edge"><title>pe1_child&#45;&#45;p1_child</title>
<path fill="none" stroke="black" d="M81.8975,-432.036C77.7485,-421.743 72.6473,-408.267 69.0456,-396 61.835,-371.441 56.1417,-342.325 52.9329,-324.253"/>
</g>
<!-- p2_child -->
<g id="node3" class="node"><title>p2_child</title>
<ellipse fill="none" stroke="black" cx="128.046" cy="-378" rx="50.0912" ry="18"/>
<text text-anchor="middle" x="128.046" y="-374.3" font-family="Times,serif" font-size="14.00">p2_child</text>
</g>
<!-- pe1_child&#45;&#45;p2_child -->
<g id="edge2" class="edge"><title>pe1_child&#45;&#45;p2_child</title>
<path fill="none" stroke="black" d="M98.4864,-432.055C104.618,-421.049 112.577,-406.764 118.692,-395.789"/>
</g>
<!-- p3_child -->
<g id="node4" class="node"><title>p3_child</title>
<ellipse fill="none" stroke="black" cx="206.046" cy="-234" rx="50.0912" ry="18"/>
<text text-anchor="middle" x="206.046" y="-230.3" font-family="Times,serif" font-size="14.00">p3_child</text>
</g>
<!-- p1_child&#45;&#45;p3_child -->
<g id="edge7" class="edge"><title>p1_child&#45;&#45;p3_child</title>
<path fill="none" stroke="black" d="M80.1239,-291.503C107.748,-279.108 148.465,-260.838 176.06,-248.455"/>
</g>
<!-- p4_child -->
<g id="node5" class="node"><title>p4_child</title>
<ellipse fill="none" stroke="black" cx="128.046" cy="-162" rx="50.0912" ry="18"/>
<text text-anchor="middle" x="128.046" y="-158.3" font-family="Times,serif" font-size="14.00">p4_child</text>
</g>
<!-- p1_child&#45;&#45;p4_child -->
<g id="edge5" class="edge"><title>p1_child&#45;&#45;p4_child</title>
<path fill="none" stroke="black" d="M59.2995,-288.153C74.3113,-260.824 103.8,-207.14 118.804,-179.825"/>
</g>
<!-- p2_child&#45;&#45;p1_child -->
<g id="edge11" class="edge"><title>p2_child&#45;&#45;p1_child</title>
<path fill="none" stroke="black" d="M110.346,-361.116C97.6709,-349.741 80.6654,-334.479 67.9449,-323.064"/>
</g>
<!-- p2_child&#45;&#45;p3_child -->
<g id="edge4" class="edge"><title>p2_child&#45;&#45;p3_child</title>
<path fill="none" stroke="black" d="M137.299,-360.153C152.311,-332.824 181.8,-279.14 196.804,-251.825"/>
</g>
<!-- p2_child&#45;&#45;p4_child -->
<g id="edge6" class="edge"><title>p2_child&#45;&#45;p4_child</title>
<path fill="none" stroke="black" d="M128.046,-359.849C128.046,-319.78 128.046,-220.383 128.046,-180.232"/>
</g>
<!-- p3_child&#45;&#45;p4_child -->
<g id="edge12" class="edge"><title>p3_child&#45;&#45;p4_child</title>
<path fill="none" stroke="black" d="M188.346,-217.116C175.671,-205.741 158.665,-190.479 145.945,-179.064"/>
</g>
<!-- pe2_child -->
<g id="node6" class="node"><title>pe2_child</title>
<ellipse fill="none" stroke="black" cx="167.046" cy="-90" rx="55.7903" ry="18"/>
<text text-anchor="middle" x="167.046" y="-86.3" font-family="Times,serif" font-size="14.00">pe2_child</text>
</g>
<!-- p3_child&#45;&#45;pe2_child -->
<g id="edge8" class="edge"><title>p3_child&#45;&#45;pe2_child</title>
<path fill="none" stroke="black" d="M203.158,-215.747C199.949,-197.675 194.256,-168.559 187.046,-144 183.444,-131.733 178.343,-118.257 174.194,-107.964"/>
</g>
<!-- p4_child&#45;&#45;pe2_child -->
<g id="edge9" class="edge"><title>p4_child&#45;&#45;pe2_child</title>
<path fill="none" stroke="black" d="M137.486,-144.055C143.618,-133.049 151.577,-118.764 157.692,-107.789"/>
</g>
<!-- right1 -->
<g id="node8" class="node"><title>right1</title>
<ellipse fill="none" stroke="black" cx="167.046" cy="-18" rx="39.7935" ry="18"/>
<text text-anchor="middle" x="167.046" y="-14.3" font-family="Times,serif" font-size="14.00">right1</text>
</g>
<!-- pe2_child&#45;&#45;right1 -->
<g id="edge10" class="edge"><title>pe2_child&#45;&#45;right1</title>
<path fill="none" stroke="black" d="M167.046,-71.6966C167.046,-60.8463 167.046,-46.9167 167.046,-36.1043"/>
</g>
<!-- left1 -->
<g id="node7" class="node"><title>left1</title>
<ellipse fill="none" stroke="black" cx="89.0456" cy="-522" rx="32.4942" ry="18"/>
<text text-anchor="middle" x="89.0456" y="-518.3" font-family="Times,serif" font-size="14.00">left1</text>
</g>
<!-- left1&#45;&#45;pe1_child -->
<g id="edge1" class="edge"><title>left1&#45;&#45;pe1_child</title>
<path fill="none" stroke="black" d="M89.0456,-503.697C89.0456,-492.846 89.0456,-478.917 89.0456,-468.104"/>
</g>
</g>
</svg>
